<?xml version="1.0" encoding="UTF-8" standalone="no"?>
<!DOCTYPE svg PUBLIC "-//W3C//DTD SVG 1.1//EN"
 "http://www.w3.org/Graphics/SVG/1.1/DTD/svg11.dtd">
<!-- Generated by graphviz version 14.1.2 (0)
 -->
<!-- Title: RAG Pages: 1 -->
<svg width="1725pt" height="403pt"
 viewBox="0.00 0.00 1725.00 403.00" xmlns="http://www.w3.org/2000/svg" xmlns:xlink="http://www.w3.org/1999/xlink">
<g id="graph0" class="graph" transform="scale(1 1) rotate(0) translate(28.8 373.8)">
<title>RAG</title>
<polygon fill="#ffffff" stroke="none" points="-28.8,28.8 -28.8,-373.8 1696.05,-373.8 1696.05,28.8 -28.8,28.8"/>
<text xml:space="preserve" text-anchor="start" x="746.25" y="-319.2" font-family="DejaVu Sans" font-weight="bold" font-size="24.00">RAG Pipeline</text>
<text xml:space="preserve" text-anchor="start" x="717.37" y="-306.6" font-family="DejaVu Sans" font-size="12.00" fill="#64748b">self&#45;hosted · GPU&#45;split · hybrid retrieval</text>
<text xml:space="preserve" text-anchor="start" x="831.37" y="-292.7" font-family="DejaVu Sans" font-size="14.00"> </text>
<g id="clust1" class="cluster">
<title>cluster_ingest</title>
<path fill="#fffaf2" stroke="#fcd9a8" stroke-dasharray="5,2" d="M30.83,-181C30.83,-181 1000.14,-181 1000.14,-181 1006.14,-181 1012.14,-187 1012.14,-193 1012.14,-193 1012.14,-267 1012.14,-267 1012.14,-273 1006.14,-279 1000.14,-279 1000.14,-279 30.83,-279 30.83,-279 24.83,-279 18.83,-273 18.83,-267 18.83,-267 18.83,-193 18.83,-193 18.83,-187 24.83,-181 30.83,-181"/>
<text xml:space="preserve" text-anchor="start" x="26.83" y="-263.65" font-family="DejaVu Sans" font-weight="bold" font-size="13.00" fill="#b45309"> &#160;1 · INGESTION</text>
<text xml:space="preserve" text-anchor="start" x="139.33" y="-263.65" font-family="DejaVu Sans" font-size="13.00" fill="#b45309"> &#160;(offline)</text>
</g>
<g id="clust2" class="cluster">
<title>cluster_query</title>
<path fill="#faf7ff" stroke="#ddc9f7" stroke-dasharray="5,2" d="M20,-8C20,-8 479.53,-8 479.53,-8 485.53,-8 491.53,-14 491.53,-20 491.53,-20 491.53,-147 491.53,-147 491.53,-153 485.53,-159 479.53,-159 479.53,-159 20,-159 20,-159 14,-159 8,-153 8,-147 8,-147 8,-20 8,-20 8,-14 14,-8 20,-8"/>
<text xml:space="preserve" text-anchor="start" x="16" y="-143.65" font-family="DejaVu Sans" font-weight="bold" font-size="13.00" fill="#6d28d9"> &#160;2 · QUERY</text>
<text xml:space="preserve" text-anchor="start" x="97.75" y="-143.65" font-family="DejaVu Sans" font-size="13.00" fill="#6d28d9"> &#160;(live · agentic)</text>
</g>
<!-- raw -->
<g id="node1" class="node">
<title>raw</title>
<path fill="#eef2f7" stroke="#cbd5e1" stroke-width="1.2" d="M164.76,-238.58C164.76,-238.58 46.83,-238.58 46.83,-238.58 40.83,-238.58 34.83,-232.58 34.83,-226.58 34.83,-226.58 34.83,-209.42 34.83,-209.42 34.83,-203.42 40.83,-197.42 46.83,-197.42 46.83,-197.42 164.76,-197.42 164.76,-197.42 170.76,-197.42 176.76,-203.42 176.76,-209.42 176.76,-209.42 176.76,-226.58 176.76,-226.58 176.76,-232.58 170.76,-238.58 164.76,-238.58"/>
<text xml:space="preserve" text-anchor="start" x="50.67" y="-218.1" font-family="DejaVu Sans" font-weight="bold" font-size="12.00" fill="#0f172a">documents_raw/</text>
<text xml:space="preserve" text-anchor="start" x="59.3" y="-208.95" font-family="DejaVu Sans" font-size="9.00" fill="#475569">PDF · DOCX · images</text>
</g>
<!-- pre -->
<g id="node2" class="node">
<title>pre</title>
<path fill="#ffedd5" stroke="#f59e0b" stroke-width="1.2" d="M456.03,-238.58C456.03,-238.58 353.1,-238.58 353.1,-238.58 347.1,-238.58 341.1,-232.58 341.1,-226.58 341.1,-226.58 341.1,-209.42 341.1,-209.42 341.1,-203.42 347.1,-197.42 353.1,-197.42 353.1,-197.42 456.03,-197.42 456.03,-197.42 462.03,-197.42 468.03,-203.42 468.03,-209.42 468.03,-209.42 468.03,-226.58 468.03,-226.58 468.03,-232.58 462.03,-238.58 456.03,-238.58"/>
<text xml:space="preserve" text-anchor="start" x="356.94" y="-218.1" font-family="DejaVu Sans" font-weight="bold" font-size="12.00" fill="#0f172a">preprocess.py</text>
<text xml:space="preserve" text-anchor="start" x="358.44" y="-208.95" font-family="DejaVu Sans" font-size="9.00" fill="#475569">marker → Markdown</text>
</g>
<!-- raw&#45;&gt;pre -->
<g id="edge1" class="edge">
<title>raw&#45;&gt;pre</title>
<path fill="none" stroke="#94a3b8" stroke-width="1.4" d="M177.13,-218C223.43,-218 283.92,-218 330.73,-218"/>
<polygon fill="#94a3b8" stroke="#94a3b8" stroke-width="1.4" points="330.68,-220.8 338.68,-218 330.68,-215.2 330.68,-220.8"/>
</g>
<!-- md -->
<g id="node3" class="node">
<title>md</title>
<path fill="#eef2f7" stroke="#cbd5e1" stroke-width="1.2" d="M759.71,-238.58C759.71,-238.58 673.28,-238.58 673.28,-238.58 667.28,-238.58 661.28,-232.58 661.28,-226.58 661.28,-226.58 661.28,-209.42 661.28,-209.42 661.28,-203.42 667.28,-197.42 673.28,-197.42 673.28,-197.42 759.71,-197.42 759.71,-197.42 765.71,-197.42 771.71,-203.42 771.71,-209.42 771.71,-209.42 771.71,-226.58 771.71,-226.58 771.71,-232.58 765.71,-238.58 759.71,-238.58"/>
<text xml:space="preserve" text-anchor="start" x="677.12" y="-218.1" font-family="DejaVu Sans" font-weight="bold" font-size="12.00" fill="#0f172a">documents/</text>
<text xml:space="preserve" text-anchor="start" x="693.99" y="-208.95" font-family="DejaVu Sans" font-size="9.00" fill="#475569">clean .md</text>
</g>
<!-- pre&#45;&gt;md -->
<g id="edge2" class="edge">
<title>pre&#45;&gt;md</title>
<path fill="none" stroke="#94a3b8" stroke-width="1.4" d="M468.28,-218C521.37,-218 597.18,-218 650.82,-218"/>
<polygon fill="#94a3b8" stroke="#94a3b8" stroke-width="1.4" points="650.78,-220.8 658.78,-218 650.78,-215.2 650.78,-220.8"/>
</g>
<!-- ing -->
<g id="node4" class="node">
<title>ing</title>
<path fill="#ffedd5" stroke="#f59e0b" stroke-width="1.2" d="M984.14,-238.58C984.14,-238.58 880.46,-238.58 880.46,-238.58 874.46,-238.58 868.46,-232.58 868.46,-226.58 868.46,-226.58 868.46,-209.42 868.46,-209.42 868.46,-203.42 874.46,-197.42 880.46,-197.42 880.46,-197.42 984.14,-197.42 984.14,-197.42 990.14,-197.42 996.14,-203.42 996.14,-209.42 996.14,-209.42 996.14,-226.58 996.14,-226.58 996.14,-232.58 990.14,-238.58 984.14,-238.58"/>
<text xml:space="preserve" text-anchor="start" x="884.3" y="-218.1" font-family="DejaVu Sans" font-weight="bold" font-size="12.00" fill="#0f172a">bulk&#45;ingest.py</text>
<text xml:space="preserve" text-anchor="start" x="887.3" y="-208.95" font-family="DejaVu Sans" font-size="9.00" fill="#475569">chunk · idempotent</text>
</g>
<!-- md&#45;&gt;ing -->
<g id="edge3" class="edge">
<title>md&#45;&gt;ing</title>
<path fill="none" stroke="#94a3b8" stroke-width="1.4" d="M772.27,-218C798.39,-218 830.01,-218 858.15,-218"/>
<polygon fill="#94a3b8" stroke="#94a3b8" stroke-width="1.4" points="857.82,-220.8 865.82,-218 857.82,-215.2 857.82,-220.8"/>
</g>
<!-- emb -->
<g id="node8" class="node">
<title>emb</title>
<path fill="#dbeafe" stroke="#60a5fa" stroke-width="1.2" d="M1344.82,-238.58C1344.82,-238.58 1141.39,-238.58 1141.39,-238.58 1135.39,-238.58 1129.39,-232.58 1129.39,-226.58 1129.39,-226.58 1129.39,-209.42 1129.39,-209.42 1129.39,-203.42 1135.39,-197.42 1141.39,-197.42 1141.39,-197.42 1344.82,-197.42 1344.82,-197.42 1350.82,-197.42 1356.82,-203.42 1356.82,-209.42 1356.82,-209.42 1356.82,-226.58 1356.82,-226.58 1356.82,-232.58 1350.82,-238.58 1344.82,-238.58"/>
<text xml:space="preserve" text-anchor="start" x="1145.23" y="-218.1" font-family="DejaVu Sans" font-weight="bold" font-size="12.00" fill="#0f172a">Qwen3&#45;Embedding&#45;0.6B</text>
<text xml:space="preserve" text-anchor="start" x="1306.48" y="-218.1" font-family="DejaVu Sans" font-size="12.00" fill="#0f172a"> &#160;</text>
<text xml:space="preserve" text-anchor="start" x="1313.98" y="-218.1" font-family="DejaVu Sans" font-size="9.00" fill="#1d4ed8">:8082</text>
<text xml:space="preserve" text-anchor="start" x="1184.98" y="-208.95" font-family="DejaVu Sans" font-size="9.00" fill="#475569">1024&#45;d · last&#45;pool · GPU B</text>
</g>
<!-- ing&#45;&gt;emb -->
<g id="edge6" class="edge">
<title>ing&#45;&gt;emb</title>
<path fill="none" stroke="#94a3b8" stroke-width="1.4" d="M996.53,-218C1031.82,-218 1077,-218 1118.97,-218"/>
<polygon fill="#94a3b8" stroke="#94a3b8" stroke-width="1.4" points="1118.87,-220.8 1126.87,-218 1118.87,-215.2 1118.87,-220.8"/>
<text xml:space="preserve" text-anchor="middle" x="1062.76" y="-221.25" font-family="DejaVu Sans" font-size="10.00" fill="#64748b">embed chunks</text>
</g>
<!-- user -->
<g id="node5" class="node">
<title>user</title>
<ellipse fill="#ffffff" stroke="#94a3b8" stroke-width="1.2" cx="105.8" cy="-75" rx="81.8" ry="24.33"/>
<text xml:space="preserve" text-anchor="start" x="63.8" y="-71.72" font-family="DejaVu Sans" font-weight="bold" font-size="12.00" fill="#0f172a">User / Client</text>
</g>
<!-- pg -->
<g id="node6" class="node">
<title>pg</title>
<path fill="#ede4fd" stroke="#a78bfa" stroke-width="1.2" d="M463.53,-83.58C463.53,-83.58 345.6,-83.58 345.6,-83.58 339.6,-83.58 333.6,-77.58 333.6,-71.58 333.6,-71.58 333.6,-54.42 333.6,-54.42 333.6,-48.42 339.6,-42.42 345.6,-42.42 345.6,-42.42 463.53,-42.42 463.53,-42.42 469.53,-42.42 475.53,-48.42 475.53,-54.42 475.53,-54.42 475.53,-71.58 475.53,-71.58 475.53,-77.58 469.53,-83.58 463.53,-83.58"/>
<text xml:space="preserve" text-anchor="start" x="349.44" y="-63.1" font-family="DejaVu Sans" font-weight="bold" font-size="12.00" fill="#0f172a">PrivateGPT</text>
<text xml:space="preserve" text-anchor="start" x="425.19" y="-63.1" font-family="DejaVu Sans" font-size="12.00" fill="#0f172a"> &#160;</text>
<text xml:space="preserve" text-anchor="start" x="432.69" y="-63.1" font-family="DejaVu Sans" font-size="9.00" fill="#7c3aed">:8001</text>
<text xml:space="preserve" text-anchor="start" x="356.56" y="-53.95" font-family="DejaVu Sans" font-size="9.00" fill="#475569">agentic RAG · web UI</text>
</g>
<!-- user&#45;&gt;pg -->
<g id="edge4" class="edge">
<title>user&#45;&gt;pg</title>
<path fill="none" stroke="#94a3b8" stroke-width="1.4" d="M171.81,-60.17C187.08,-57.29 203.34,-54.72 218.6,-53.25 255.76,-49.67 265.31,-51.45 302.6,-53.25 309.21,-53.57 316.07,-54 322.95,-54.52"/>
<polygon fill="#94a3b8" stroke="#94a3b8" stroke-width="1.4" points="322.7,-57.31 330.9,-55.15 323.15,-51.72 322.7,-57.31"/>
<text xml:space="preserve" text-anchor="middle" x="260.6" y="-56.5" font-family="DejaVu Sans" font-size="10.00" fill="#64748b">question</text>
</g>
<!-- pg&#45;&gt;user -->
<g id="edge5" class="edge">
<title>pg&#45;&gt;user</title>
<path fill="none" stroke="#94a3b8" stroke-width="1.4" d="M333.25,-68.27C322.97,-68.93 312.51,-69.53 302.6,-70 268.43,-71.62 230.88,-72.74 197.88,-73.5"/>
<polygon fill="#94a3b8" stroke="#94a3b8" stroke-width="1.4" points="197.85,-70.7 189.92,-73.68 197.98,-76.3 197.85,-70.7"/>
<text xml:space="preserve" text-anchor="middle" x="260.6" y="-76.15" font-family="DejaVu Sans" font-size="10.00" fill="#64748b">grounded answer</text>
</g>
<!-- llm -->
<g id="node7" class="node">
<title>llm</title>
<path fill="#dbeafe" stroke="#60a5fa" stroke-width="1.2" d="M793.46,-124.58C793.46,-124.58 639.53,-124.58 639.53,-124.58 633.53,-124.58 627.53,-118.58 627.53,-112.58 627.53,-112.58 627.53,-95.42 627.53,-95.42 627.53,-89.42 633.53,-83.42 639.53,-83.42 639.53,-83.42 793.46,-83.42 793.46,-83.42 799.46,-83.42 805.46,-89.42 805.46,-95.42 805.46,-95.42 805.46,-112.58 805.46,-112.58 805.46,-118.58 799.46,-124.58 793.46,-124.58"/>
<text xml:space="preserve" text-anchor="start" x="643.37" y="-104.1" font-family="DejaVu Sans" font-weight="bold" font-size="12.00" fill="#0f172a">Dolphin&#45;2.9.4&#45;8B</text>
<text xml:space="preserve" text-anchor="start" x="755.12" y="-104.1" font-family="DejaVu Sans" font-size="12.00" fill="#0f172a"> &#160;</text>
<text xml:space="preserve" text-anchor="start" x="762.62" y="-104.1" font-family="DejaVu Sans" font-size="9.00" fill="#1d4ed8">:8081</text>
<text xml:space="preserve" text-anchor="start" x="650.12" y="-94.95" font-family="DejaVu Sans" font-size="9.00" fill="#475569">llama.cpp · Q8 · GPU A · tools</text>
</g>
<!-- pg&#45;&gt;llm -->
<g id="edge8" class="edge">
<title>pg&#45;&gt;llm</title>
<path fill="none" stroke="#94a3b8" stroke-width="1.4" d="M450.03,-84.14C467.26,-91.27 487.42,-98.34 506.53,-102 542.27,-108.84 582.09,-110.63 617.3,-110.27"/>
<polygon fill="#94a3b8" stroke="#94a3b8" stroke-width="1.4" points="617.03,-113.08 624.99,-110.15 616.94,-107.48 617.03,-113.08"/>
<text xml:space="preserve" text-anchor="middle" x="551.53" y="-113.38" font-family="DejaVu Sans" font-size="10.00" fill="#64748b">prompt + tools</text>
</g>
<!-- qd -->
<g id="node9" class="node">
<title>qd</title>
<path fill="#dcfce7" stroke="#4ade80" stroke-width="1.2" d="M1655.25,-238.58C1655.25,-238.58 1506.57,-238.58 1506.57,-238.58 1500.57,-238.58 1494.57,-232.58 1494.57,-226.58 1494.57,-226.58 1494.57,-209.42 1494.57,-209.42 1494.57,-203.42 1500.57,-197.42 1506.57,-197.42 1506.57,-197.42 1655.25,-197.42 1655.25,-197.42 1661.25,-197.42 1667.25,-203.42 1667.25,-209.42 1667.25,-209.42 1667.25,-226.58 1667.25,-226.58 1667.25,-232.58 1661.25,-238.58 1655.25,-238.58"/>
<text xml:space="preserve" text-anchor="start" x="1516.03" y="-218.1" font-family="DejaVu Sans" font-weight="bold" font-size="12.00" fill="#0f172a">Qdrant server</text>
<text xml:space="preserve" text-anchor="start" x="1611.28" y="-218.1" font-family="DejaVu Sans" font-size="12.00" fill="#0f172a"> &#160;</text>
<text xml:space="preserve" text-anchor="start" x="1618.78" y="-218.1" font-family="DejaVu Sans" font-size="9.00" fill="#15803d">:6333</text>
<text xml:space="preserve" text-anchor="start" x="1510.41" y="-208.95" font-family="DejaVu Sans" font-size="9.00" fill="#475569">hybrid: dense + sparse (BM25)</text>
</g>
<!-- pg&#45;&gt;qd -->
<g id="edge10" class="edge">
<title>pg&#45;&gt;qd</title>
<path fill="none" stroke="#ec4899" stroke-width="1.4" d="M475.99,-63.01C582.04,-63.12 773.77,-63.78 805.46,-67 936.54,-80.32 1307.9,-158.88 1484.43,-197.12"/>
<polygon fill="#ec4899" stroke="#ec4899" stroke-width="1.4" points="1483.75,-199.83 1492.16,-198.79 1484.94,-194.36 1483.75,-199.83"/>
<text xml:space="preserve" text-anchor="start" x="896.3" y="-102.92" font-family="DejaVu Sans" font-size="10.00" fill="#db2777">hybrid retrieve</text>
</g>
<!-- llm&#45;&gt;pg -->
<g id="edge9" class="edge">
<title>llm&#45;&gt;pg</title>
<path fill="none" stroke="#ec4899" stroke-width="1.8" d="M626.97,-86.12C616.73,-84.34 606.41,-82.66 596.53,-81.25 560.52,-76.1 520.49,-72.02 486.41,-69.04"/>
<polygon fill="#ec4899" stroke="#ec4899" stroke-width="1.8" points="486.96,-66.28 478.75,-68.38 486.48,-71.86 486.96,-66.28"/>
<text xml:space="preserve" text-anchor="start" x="506.53" y="-84.5" font-family="DejaVu Sans" font-size="10.00" fill="#db2777">semantic_search()</text>
</g>
<!-- emb&#45;&gt;qd -->
<g id="edge7" class="edge">
<title>emb&#45;&gt;qd</title>
<path fill="none" stroke="#94a3b8" stroke-width="1.4" d="M1357.32,-218C1398.48,-218 1444.57,-218 1484.08,-218"/>
<polygon fill="#94a3b8" stroke="#94a3b8" stroke-width="1.4" points="1483.86,-220.8 1491.86,-218 1483.86,-215.2 1483.86,-220.8"/>
<text xml:space="preserve" text-anchor="middle" x="1425.69" y="-221.25" font-family="DejaVu Sans" font-size="10.00" fill="#64748b">dense + sparse</text>
</g>
<!-- qd&#45;&gt;pg -->
<g id="edge11" class="edge">
<title>qd&#45;&gt;pg</title>
<path fill="none" stroke="#ec4899" stroke-width="1.4" d="M1541.6,-196.83C1498.08,-173.66 1424.32,-137 1356.82,-116 1046.53,-19.46 652.25,-39.88 485.64,-54.6"/>
<polygon fill="#ec4899" stroke="#ec4899" stroke-width="1.4" points="485.78,-51.78 478.07,-55.28 486.28,-57.35 485.78,-51.78"/>
<text xml:space="preserve" text-anchor="start" x="900.8" y="-55.38" font-family="DejaVu Sans" font-size="10.00" fill="#db2777">top&#45;k chunks</text>
</g>
</g>
</svg>
