<?xml version="1.0" encoding="UTF-8" standalone="no"?>
<!DOCTYPE svg PUBLIC "-//W3C//DTD SVG 1.1//EN"
 "http://www.w3.org/Graphics/SVG/1.1/DTD/svg11.dtd">
<!-- Generated by graphviz version 14.1.2 (0)
 -->
<!-- Title: RAGPipeline Pages: 1 -->
<svg width="1750pt" height="506pt"
 viewBox="0.00 0.00 1750.00 506.00" xmlns="http://www.w3.org/2000/svg" xmlns:xlink="http://www.w3.org/1999/xlink">
<g id="graph0" class="graph" transform="scale(1 1) rotate(0) translate(28.8 476.8)">
<title>RAGPipeline</title>
<polygon fill="#0d1117" stroke="none" points="-28.8,28.8 -28.8,-476.8 1721.2,-476.8 1721.2,28.8 -28.8,28.8"/>
<text xml:space="preserve" text-anchor="middle" x="846.2" y="-423.1" font-family="Helvetica,Arial,sans-serif" font-size="22.00" fill="#e6edf3">RAG Pipeline — PrivateGPT · Dolphin&#45;8B · Qwen3&#45;Embedding</text>
<text xml:space="preserve" text-anchor="middle" x="846.2" y="-400.6" font-family="Helvetica,Arial,sans-serif" font-size="22.00" fill="#e6edf3">(local · GPU&#45;split · hybrid retrieval)</text>
<g id="clust1" class="cluster">
<title>cluster_ingest</title>
<path fill="#161b22" stroke="#30363d" d="M20,-206C20,-206 974.43,-206 974.43,-206 980.43,-206 986.43,-212 986.43,-218 986.43,-218 986.43,-296 986.43,-296 986.43,-302 980.43,-308 974.43,-308 974.43,-308 20,-308 20,-308 14,-308 8,-302 8,-296 8,-296 8,-218 8,-218 8,-212 14,-206 20,-206"/>
<text xml:space="preserve" text-anchor="middle" x="110.5" y="-290.7" font-family="Helvetica,Arial,sans-serif" font-size="14.00" fill="#ffa657">① &#160;INGESTION &#160;(offline batch)</text>
</g>
<g id="clust2" class="cluster">
<title>cluster_query</title>
<path fill="#161b22" stroke="#30363d" d="M809.97,-8C809.97,-8 1278.98,-8 1278.98,-8 1284.98,-8 1290.98,-14 1290.98,-20 1290.98,-20 1290.98,-126 1290.98,-126 1290.98,-132 1284.98,-138 1278.98,-138 1278.98,-138 809.97,-138 809.97,-138 803.97,-138 797.97,-132 797.97,-126 797.97,-126 797.97,-20 797.97,-20 797.97,-14 803.97,-8 809.97,-8"/>
<text xml:space="preserve" text-anchor="middle" x="895.22" y="-120.7" font-family="Helvetica,Arial,sans-serif" font-size="14.00" fill="#d2a8ff">② &#160;QUERY &#160;(online · agentic)</text>
</g>
<g id="clust3" class="cluster">
<title>cluster_3060</title>
<path fill="#0b2a4a" stroke="#1f6feb" d="M1477.48,-19C1477.48,-19 1672.4,-19 1672.4,-19 1678.4,-19 1684.4,-25 1684.4,-31 1684.4,-31 1684.4,-96 1684.4,-96 1684.4,-102 1678.4,-108 1672.4,-108 1672.4,-108 1477.48,-108 1477.48,-108 1471.48,-108 1465.48,-102 1465.48,-96 1465.48,-96 1465.48,-31 1465.48,-31 1465.48,-25 1471.48,-19 1477.48,-19"/>
<text xml:space="preserve" text-anchor="middle" x="1574.94" y="-92.6" font-family="Helvetica,Arial,sans-serif" font-size="12.00" fill="#79c0ff">GPU A · 12 GB</text>
</g>
<g id="clust4" class="cluster">
<title>cluster_1080</title>
<path fill="#0b2a4a" stroke="#1f6feb" d="M1115.93,-280C1115.93,-280 1290.6,-280 1290.6,-280 1296.6,-280 1302.6,-286 1302.6,-292 1302.6,-292 1302.6,-357 1302.6,-357 1302.6,-363 1296.6,-369 1290.6,-369 1290.6,-369 1115.93,-369 1115.93,-369 1109.93,-369 1103.93,-363 1103.93,-357 1103.93,-357 1103.93,-292 1103.93,-292 1103.93,-286 1109.93,-280 1115.93,-280"/>
<text xml:space="preserve" text-anchor="middle" x="1203.27" y="-353.6" font-family="Helvetica,Arial,sans-serif" font-size="12.00" fill="#79c0ff">GPU B · 8 GB</text>
</g>
<g id="clust5" class="cluster">
<title>cluster_legend</title>
<path fill="#161b22" stroke="#30363d" d="M104,-316C104,-316 899.43,-316 899.43,-316 905.43,-316 911.43,-322 911.43,-328 911.43,-328 911.43,-375 911.43,-375 911.43,-381 905.43,-387 899.43,-387 899.43,-387 104,-387 104,-387 98,-387 92,-381 92,-375 92,-375 92,-328 92,-328 92,-322 98,-316 104,-316"/>
<text xml:space="preserve" text-anchor="middle" x="116.12" y="-372.55" font-family="Helvetica,Arial,sans-serif" font-size="11.00" fill="#9da7b3">legend</text>
</g>
<!-- raw -->
<g id="node1" class="node">
<title>raw</title>
<path fill="#d0d7de" stroke="black" stroke-width="0" d="M226.42,-259.95C226.42,-259.95 28,-259.95 28,-259.95 22,-259.95 16,-253.95 16,-247.95 16,-247.95 16,-232.05 16,-232.05 16,-226.05 22,-220.05 28,-220.05 28,-220.05 226.42,-220.05 226.42,-220.05 232.42,-220.05 238.42,-226.05 238.42,-232.05 238.42,-232.05 238.42,-247.95 238.42,-247.95 238.42,-253.95 232.42,-259.95 226.42,-259.95"/>
<text xml:space="preserve" text-anchor="middle" x="127.21" y="-241.35" font-family="Helvetica,Arial,sans-serif" font-size="12.00" fill="#0d1117">documents_raw/&lt;collection&gt;/</text>
<text xml:space="preserve" text-anchor="middle" x="127.21" y="-228.6" font-family="Helvetica,Arial,sans-serif" font-size="12.00" fill="#0d1117">PDF · DOCX · XLSX · PPTX · images</text>
</g>
<!-- pre -->
<g id="node2" class="node">
<title>pre</title>
<path fill="#ffb454" stroke="black" stroke-width="0" d="M486.59,-259.95C486.59,-259.95 305.42,-259.95 305.42,-259.95 299.42,-259.95 293.42,-253.95 293.42,-247.95 293.42,-247.95 293.42,-232.05 293.42,-232.05 293.42,-226.05 299.42,-220.05 305.42,-220.05 305.42,-220.05 486.59,-220.05 486.59,-220.05 492.59,-220.05 498.59,-226.05 498.59,-232.05 498.59,-232.05 498.59,-247.95 498.59,-247.95 498.59,-253.95 492.59,-259.95 486.59,-259.95"/>
<text xml:space="preserve" text-anchor="middle" x="396.01" y="-241.35" font-family="Helvetica,Arial,sans-serif" font-size="12.00" fill="#0d1117">preprocess.py</text>
<text xml:space="preserve" text-anchor="middle" x="396.01" y="-228.6" font-family="Helvetica,Arial,sans-serif" font-size="12.00" fill="#0d1117">marker · PDF → Markdown (CPU)</text>
</g>
<!-- raw&#45;&gt;pre -->
<g id="edge1" class="edge">
<title>raw&#45;&gt;pre</title>
<path fill="none" stroke="#7d8590" stroke-width="1.6" d="M238.27,-240C253.19,-240 268.52,-240 283.48,-240"/>
<polygon fill="#7d8590" stroke="#7d8590" stroke-width="1.6" points="283.34,-242.8 291.34,-240 283.34,-237.2 283.34,-242.8"/>
</g>
<!-- md -->
<g id="node3" class="node">
<title>md</title>
<path fill="#d0d7de" stroke="black" stroke-width="0" d="M696.51,-259.95C696.51,-259.95 565.59,-259.95 565.59,-259.95 559.59,-259.95 553.59,-253.95 553.59,-247.95 553.59,-247.95 553.59,-232.05 553.59,-232.05 553.59,-226.05 559.59,-220.05 565.59,-220.05 565.59,-220.05 696.51,-220.05 696.51,-220.05 702.51,-220.05 708.51,-226.05 708.51,-232.05 708.51,-232.05 708.51,-247.95 708.51,-247.95 708.51,-253.95 702.51,-259.95 696.51,-259.95"/>
<text xml:space="preserve" text-anchor="middle" x="631.05" y="-241.35" font-family="Helvetica,Arial,sans-serif" font-size="12.00" fill="#0d1117">documents/&lt;collection&gt;/</text>
<text xml:space="preserve" text-anchor="middle" x="631.05" y="-228.6" font-family="Helvetica,Arial,sans-serif" font-size="12.00" fill="#0d1117">clean .md</text>
</g>
<!-- pre&#45;&gt;md -->
<g id="edge2" class="edge">
<title>pre&#45;&gt;md</title>
<path fill="none" stroke="#7d8590" stroke-width="1.6" d="M498.54,-240C513.59,-240 528.98,-240 543.68,-240"/>
<polygon fill="#7d8590" stroke="#7d8590" stroke-width="1.6" points="543.31,-242.8 551.31,-240 543.31,-237.2 543.31,-242.8"/>
</g>
<!-- ing -->
<g id="node4" class="node">
<title>ing</title>
<path fill="#ffb454" stroke="black" stroke-width="0" d="M966.43,-266.32C966.43,-266.32 775.51,-266.32 775.51,-266.32 769.51,-266.32 763.51,-260.32 763.51,-254.32 763.51,-254.32 763.51,-225.68 763.51,-225.68 763.51,-219.68 769.51,-213.68 775.51,-213.68 775.51,-213.68 966.43,-213.68 966.43,-213.68 972.43,-213.68 978.43,-219.68 978.43,-225.68 978.43,-225.68 978.43,-254.32 978.43,-254.32 978.43,-260.32 972.43,-266.32 966.43,-266.32"/>
<text xml:space="preserve" text-anchor="middle" x="870.97" y="-247.72" font-family="Helvetica,Arial,sans-serif" font-size="12.00" fill="#0d1117">bulk&#45;ingest.py</text>
<text xml:space="preserve" text-anchor="middle" x="870.97" y="-234.97" font-family="Helvetica,Arial,sans-serif" font-size="12.00" fill="#0d1117">sha256 manifest · idempotent</text>
<text xml:space="preserve" text-anchor="middle" x="870.97" y="-222.22" font-family="Helvetica,Arial,sans-serif" font-size="12.00" fill="#0d1117">base64 → POST /v1/artifacts/ingest</text>
</g>
<!-- md&#45;&gt;ing -->
<g id="edge3" class="edge">
<title>md&#45;&gt;ing</title>
<path fill="none" stroke="#7d8590" stroke-width="1.6" d="M708.31,-240C722.81,-240 738.28,-240 753.68,-240"/>
<polygon fill="#7d8590" stroke="#7d8590" stroke-width="1.6" points="753.37,-242.8 761.37,-240 753.37,-237.2 753.37,-242.8"/>
</g>
<!-- emb -->
<g id="node8" class="node">
<title>emb</title>
<path fill="#a5d6ff" stroke="black" stroke-width="0" d="M1282.6,-340.32C1282.6,-340.32 1123.93,-340.32 1123.93,-340.32 1117.93,-340.32 1111.93,-334.32 1111.93,-328.32 1111.93,-328.32 1111.93,-299.68 1111.93,-299.68 1111.93,-293.68 1117.93,-287.68 1123.93,-287.68 1123.93,-287.68 1282.6,-287.68 1282.6,-287.68 1288.6,-287.68 1294.6,-293.68 1294.6,-299.68 1294.6,-299.68 1294.6,-328.32 1294.6,-328.32 1294.6,-334.32 1288.6,-340.32 1282.6,-340.32"/>
<text xml:space="preserve" text-anchor="middle" x="1203.27" y="-321.73" font-family="Helvetica,Arial,sans-serif" font-size="12.00" fill="#0d1117">llama.cpp &#160;&#160;:8082</text>
<text xml:space="preserve" text-anchor="middle" x="1203.27" y="-308.98" font-family="Helvetica,Arial,sans-serif" font-size="12.00" fill="#0d1117">Qwen3&#45;Embedding&#45;0.6B · f16</text>
<text xml:space="preserve" text-anchor="middle" x="1203.27" y="-296.23" font-family="Helvetica,Arial,sans-serif" font-size="12.00" fill="#0d1117">1024&#45;dim · last&#45;pooling</text>
</g>
<!-- ing&#45;&gt;emb -->
<g id="edge4" class="edge">
<title>ing&#45;&gt;emb</title>
<path fill="none" stroke="#7d8590" stroke-width="1.6" d="M978.3,-263.82C1018.02,-272.72 1062.97,-282.79 1102.12,-291.56"/>
<polygon fill="#7d8590" stroke="#7d8590" stroke-width="1.6" points="1101.16,-294.22 1109.58,-293.23 1102.38,-288.75 1101.16,-294.22"/>
<text xml:space="preserve" text-anchor="middle" x="1045.18" y="-286.8" font-family="Helvetica,Arial,sans-serif" font-size="10.00" fill="#9da7b3">embed chunks</text>
</g>
<!-- store -->
<g id="node9" class="node">
<title>store</title>
<path fill="#7ee787" stroke="black" stroke-width="0" d="M1679.02,-243.95C1679.02,-243.95 1470.85,-243.95 1470.85,-243.95 1464.85,-243.95 1458.85,-237.95 1458.85,-231.95 1458.85,-231.95 1458.85,-216.05 1458.85,-216.05 1458.85,-210.05 1464.85,-204.05 1470.85,-204.05 1470.85,-204.05 1679.02,-204.05 1679.02,-204.05 1685.02,-204.05 1691.02,-210.05 1691.02,-216.05 1691.02,-216.05 1691.02,-231.95 1691.02,-231.95 1691.02,-237.95 1685.02,-243.95 1679.02,-243.95"/>
<text xml:space="preserve" text-anchor="middle" x="1574.94" y="-225.35" font-family="Helvetica,Arial,sans-serif" font-size="12.00" fill="#0d1117">Qdrant server (podman :6333)</text>
<text xml:space="preserve" text-anchor="middle" x="1574.94" y="-212.6" font-family="Helvetica,Arial,sans-serif" font-size="12.00" fill="#0d1117">HYBRID: dense(1024) + sparse(BM25)</text>
</g>
<!-- ing&#45;&gt;store -->
<g id="edge6" class="edge">
<title>ing&#45;&gt;store</title>
<path fill="none" stroke="#7d8590" stroke-width="1.6" stroke-dasharray="5,2" d="M978.2,-237.58C1104.37,-234.7 1314.55,-229.91 1448.56,-226.86"/>
<polygon fill="#7d8590" stroke="#7d8590" stroke-width="1.6" points="1448.52,-229.66 1456.46,-226.68 1448.4,-224.06 1448.52,-229.66"/>
<text xml:space="preserve" text-anchor="middle" x="1203.27" y="-246.12" font-family="Helvetica,Arial,sans-serif" font-size="10.00" fill="#9da7b3">sparse vectors</text>
<text xml:space="preserve" text-anchor="middle" x="1203.27" y="-235.62" font-family="Helvetica,Arial,sans-serif" font-size="10.00" fill="#9da7b3">(fastembed BM25)</text>
</g>
<!-- sql -->
<g id="node10" class="node">
<title>sql</title>
<path fill="#7ee787" stroke="black" stroke-width="0" d="M1256.35,-185.95C1256.35,-185.95 1150.18,-185.95 1150.18,-185.95 1144.18,-185.95 1138.18,-179.95 1138.18,-173.95 1138.18,-173.95 1138.18,-158.05 1138.18,-158.05 1138.18,-152.05 1144.18,-146.05 1150.18,-146.05 1150.18,-146.05 1256.35,-146.05 1256.35,-146.05 1262.35,-146.05 1268.35,-152.05 1268.35,-158.05 1268.35,-158.05 1268.35,-173.95 1268.35,-173.95 1268.35,-179.95 1262.35,-185.95 1256.35,-185.95"/>
<text xml:space="preserve" text-anchor="middle" x="1203.27" y="-167.35" font-family="Helvetica,Arial,sans-serif" font-size="12.00" fill="#0d1117">SQLite (embedded)</text>
<text xml:space="preserve" text-anchor="middle" x="1203.27" y="-154.6" font-family="Helvetica,Arial,sans-serif" font-size="12.00" fill="#0d1117">doc / index store</text>
</g>
<!-- ing&#45;&gt;sql -->
<g id="edge7" class="edge">
<title>ing&#45;&gt;sql</title>
<path fill="none" stroke="#7d8590" stroke-width="1.6" stroke-dasharray="1,5" d="M978.31,-215.63C987.48,-213.55 996.62,-211.48 1005.43,-209.5 1046,-200.38 1091.32,-190.35 1128.24,-182.23"/>
<polygon fill="#7d8590" stroke="#7d8590" stroke-width="1.6" points="1128.84,-184.96 1136.05,-180.51 1127.63,-179.49 1128.84,-184.96"/>
<text xml:space="preserve" text-anchor="middle" x="1045.18" y="-210.5" font-family="Helvetica,Arial,sans-serif" font-size="10.00" fill="#9da7b3">metadata</text>
</g>
<!-- user -->
<g id="node5" class="node">
<title>user</title>
<ellipse fill="#d0d7de" stroke="black" stroke-width="0" cx="870.97" cy="-60" rx="65" ry="19.2"/>
<text xml:space="preserve" text-anchor="middle" x="870.97" y="-54.98" font-family="Helvetica,Arial,sans-serif" font-size="12.00" fill="#0d1117">User / Client</text>
</g>
<!-- pgpt -->
<g id="node6" class="node">
<title>pgpt</title>
<path fill="#d2a8ff" stroke="black" stroke-width="0" d="M1270.98,-96.33C1270.98,-96.33 1135.56,-96.33 1135.56,-96.33 1129.56,-96.33 1123.56,-90.33 1123.56,-84.33 1123.56,-84.33 1123.56,-55.67 1123.56,-55.67 1123.56,-49.67 1129.56,-43.67 1135.56,-43.67 1135.56,-43.67 1270.98,-43.67 1270.98,-43.67 1276.98,-43.67 1282.98,-49.67 1282.98,-55.67 1282.98,-55.67 1282.98,-84.33 1282.98,-84.33 1282.98,-90.33 1276.98,-96.33 1270.98,-96.33"/>
<text xml:space="preserve" text-anchor="middle" x="1203.27" y="-77.72" font-family="Helvetica,Arial,sans-serif" font-size="12.00" fill="#0d1117">PrivateGPT &#160;&#160;:8001</text>
<text xml:space="preserve" text-anchor="middle" x="1203.27" y="-64.97" font-family="Helvetica,Arial,sans-serif" font-size="12.00" fill="#0d1117">/ui · /v1/messages</text>
<text xml:space="preserve" text-anchor="middle" x="1203.27" y="-52.23" font-family="Helvetica,Arial,sans-serif" font-size="12.00" fill="#0d1117">agentic RAG orchestrator</text>
</g>
<!-- user&#45;&gt;pgpt -->
<g id="edge8" class="edge">
<title>user&#45;&gt;pgpt</title>
<path fill="none" stroke="#7d8590" stroke-width="1.6" d="M925.45,-49.78C968.58,-42.94 1030.76,-36.24 1084.93,-42.5 1094.34,-43.59 1104.09,-45.15 1113.77,-46.99"/>
<polygon fill="#7d8590" stroke="#7d8590" stroke-width="1.6" points="1113.04,-49.7 1121.43,-48.52 1114.14,-44.21 1113.04,-49.7"/>
<text xml:space="preserve" text-anchor="middle" x="1045.18" y="-43.5" font-family="Helvetica,Arial,sans-serif" font-size="10.00" fill="#9da7b3">question</text>
</g>
<!-- pgpt&#45;&gt;user -->
<g id="edge15" class="edge">
<title>pgpt&#45;&gt;user</title>
<path fill="none" stroke="#7d8590" stroke-width="1.6" d="M1123.74,-67.62C1069.74,-65.99 998.5,-63.83 945.59,-62.23"/>
<polygon fill="#7d8590" stroke="#7d8590" stroke-width="1.6" points="945.77,-59.43 937.68,-61.99 945.6,-65.03 945.77,-59.43"/>
<text xml:space="preserve" text-anchor="middle" x="1045.18" y="-67.19" font-family="Helvetica,Arial,sans-serif" font-size="10.00" fill="#9da7b3">answer + citations</text>
</g>
<!-- llm -->
<g id="node7" class="node">
<title>llm</title>
<path fill="#a5d6ff" stroke="black" stroke-width="0" d="M1664.4,-79.33C1664.4,-79.33 1485.48,-79.33 1485.48,-79.33 1479.48,-79.33 1473.48,-73.33 1473.48,-67.33 1473.48,-67.33 1473.48,-38.67 1473.48,-38.67 1473.48,-32.67 1479.48,-26.68 1485.48,-26.68 1485.48,-26.68 1664.4,-26.68 1664.4,-26.68 1670.4,-26.68 1676.4,-32.67 1676.4,-38.67 1676.4,-38.67 1676.4,-67.33 1676.4,-67.33 1676.4,-73.33 1670.4,-79.33 1664.4,-79.33"/>
<text xml:space="preserve" text-anchor="middle" x="1574.94" y="-60.73" font-family="Helvetica,Arial,sans-serif" font-size="12.00" fill="#0d1117">llama.cpp &#160;&#160;:8081</text>
<text xml:space="preserve" text-anchor="middle" x="1574.94" y="-47.98" font-family="Helvetica,Arial,sans-serif" font-size="12.00" fill="#0d1117">Dolphin&#45;2.9.4&#45;llama3.1&#45;8b · Q8_0</text>
<text xml:space="preserve" text-anchor="middle" x="1574.94" y="-35.23" font-family="Helvetica,Arial,sans-serif" font-size="12.00" fill="#0d1117">Llama&#45;3.1 tool template</text>
</g>
<!-- pgpt&#45;&gt;llm -->
<g id="edge9" class="edge">
<title>pgpt&#45;&gt;llm</title>
<path fill="none" stroke="#7d8590" stroke-width="1.6" d="M1282.73,-80.67C1295.69,-82.05 1309.01,-83.25 1321.6,-84 1370.51,-86.91 1383.13,-89.25 1431.85,-84 1442.22,-82.88 1452.94,-81.32 1463.63,-79.48"/>
<polygon fill="#7d8590" stroke="#7d8590" stroke-width="1.6" points="1464.09,-82.24 1471.47,-78.07 1463.1,-76.73 1464.09,-82.24"/>
<text xml:space="preserve" text-anchor="middle" x="1376.73" y="-88.12" font-family="Helvetica,Arial,sans-serif" font-size="10.00" fill="#9da7b3">prompt + tool spec</text>
</g>
<!-- pgpt&#45;&gt;llm -->
<g id="edge13" class="edge">
<title>pgpt&#45;&gt;llm</title>
<path fill="none" stroke="#7d8590" stroke-width="1.6" d="M1282.66,-66.39C1335.15,-63.98 1405,-60.77 1463.14,-58.1"/>
<polygon fill="#7d8590" stroke="#7d8590" stroke-width="1.6" points="1463.2,-60.9 1471.06,-57.73 1462.94,-55.3 1463.2,-60.9"/>
<text xml:space="preserve" text-anchor="middle" x="1376.73" y="-65.5" font-family="Helvetica,Arial,sans-serif" font-size="10.00" fill="#9da7b3">context&#45;grounded prompt</text>
</g>
<!-- pgpt&#45;&gt;store -->
<g id="edge11" class="edge">
<title>pgpt&#45;&gt;store</title>
<path fill="none" stroke="#f778ba" stroke-width="1.6" d="M1257.81,-96.25C1273.8,-106.06 1290.32,-118.43 1302.6,-133 1316.59,-149.6 1304.66,-164.42 1321.6,-178 1332.27,-186.56 1390.85,-197.5 1448.87,-206.56"/>
<polygon fill="#f778ba" stroke="#f778ba" stroke-width="1.6" points="1448.2,-209.29 1456.54,-207.75 1449.06,-203.76 1448.2,-209.29"/>
<text xml:space="preserve" text-anchor="middle" x="1376.73" y="-204.08" font-family="Helvetica,Arial,sans-serif" font-size="10.00" fill="#f778ba">hybrid retrieve (top_k=10)</text>
</g>
<!-- llm&#45;&gt;pgpt -->
<g id="edge10" class="edge">
<title>llm&#45;&gt;pgpt</title>
<path fill="none" stroke="#f778ba" stroke-width="2.2" d="M1473.71,-31.05C1427.23,-23.99 1371.38,-19.96 1321.6,-28.5 1306.69,-31.06 1291.16,-35.32 1276.47,-40.17"/>
<polygon fill="#f778ba" stroke="#f778ba" stroke-width="2.2" points="1275.74,-37.45 1269.08,-42.7 1277.56,-42.75 1275.74,-37.45"/>
<text xml:space="preserve" text-anchor="middle" x="1376.73" y="-29.5" font-family="Helvetica,Arial,sans-serif" font-size="10.00" fill="#f778ba">semantic_search()</text>
</g>
<!-- llm&#45;&gt;pgpt -->
<g id="edge14" class="edge">
<title>llm&#45;&gt;pgpt</title>
<path fill="none" stroke="#7d8590" stroke-width="1.6" d="M1510.44,-26.75C1459.12,-9.06 1385.19,8.38 1321.6,-7.5 1296.83,-13.69 1271.55,-26.2 1250.84,-38.41"/>
<polygon fill="#7d8590" stroke="#7d8590" stroke-width="1.6" points="1249.42,-36 1244.03,-42.54 1252.32,-40.79 1249.42,-36"/>
<text xml:space="preserve" text-anchor="middle" x="1376.73" y="-8.5" font-family="Helvetica,Arial,sans-serif" font-size="10.00" fill="#9da7b3">grounded answer</text>
</g>
<!-- emb&#45;&gt;store -->
<g id="edge5" class="edge">
<title>emb&#45;&gt;store</title>
<path fill="none" stroke="#7d8590" stroke-width="1.6" d="M1294.33,-292.96C1336.18,-283.1 1386.59,-271.1 1431.85,-260 1449.47,-255.68 1468.3,-250.97 1486.29,-246.43"/>
<polygon fill="#7d8590" stroke="#7d8590" stroke-width="1.6" points="1486.77,-249.19 1493.84,-244.52 1485.4,-243.77 1486.77,-249.19"/>
<text xml:space="preserve" text-anchor="middle" x="1376.73" y="-286.49" font-family="Helvetica,Arial,sans-serif" font-size="10.00" fill="#9da7b3">dense vectors</text>
</g>
<!-- store&#45;&gt;pgpt -->
<g id="edge12" class="edge">
<title>store&#45;&gt;pgpt</title>
<path fill="none" stroke="#f778ba" stroke-width="1.6" d="M1528.61,-204.08C1500.76,-191.91 1464.32,-176.12 1431.85,-162.5 1381.1,-141.21 1323.7,-117.88 1279.23,-99.98"/>
<polygon fill="#f778ba" stroke="#f778ba" stroke-width="1.6" points="1280.38,-97.42 1271.91,-97.03 1278.29,-102.62 1280.38,-97.42"/>
<text xml:space="preserve" text-anchor="middle" x="1376.73" y="-163.5" font-family="Helvetica,Arial,sans-serif" font-size="10.00" fill="#f778ba">ranked chunks</text>
</g>
<!-- l_script -->
<g id="node11" class="node">
<title>l_script</title>
<path fill="#ffb454" stroke="black" stroke-width="0" d="M142.42,-360C142.42,-360 112,-360 112,-360 106,-360 100,-354 100,-348 100,-348 100,-336 100,-336 100,-330 106,-324 112,-324 112,-324 142.42,-324 142.42,-324 148.42,-324 154.42,-330 154.42,-336 154.42,-336 154.42,-348 154.42,-348 154.42,-354 148.42,-360 142.42,-360"/>
<text xml:space="preserve" text-anchor="middle" x="127.21" y="-336.98" font-family="Helvetica,Arial,sans-serif" font-size="12.00" fill="#0d1117">script</text>
</g>
<!-- l_model -->
<g id="node12" class="node">
<title>l_model</title>
<path fill="#a5d6ff" stroke="black" stroke-width="0" d="M431.47,-360C431.47,-360 360.55,-360 360.55,-360 354.55,-360 348.55,-354 348.55,-348 348.55,-348 348.55,-336 348.55,-336 348.55,-330 354.55,-324 360.55,-324 360.55,-324 431.47,-324 431.47,-324 437.47,-324 443.47,-330 443.47,-336 443.47,-336 443.47,-348 443.47,-348 443.47,-354 437.47,-360 431.47,-360"/>
<text xml:space="preserve" text-anchor="middle" x="396.01" y="-336.98" font-family="Helvetica,Arial,sans-serif" font-size="12.00" fill="#0d1117">model (GPU)</text>
</g>
<!-- l_script&#45;&gt;l_model -->
<!-- l_store -->
<g id="node13" class="node">
<title>l_store</title>
<path fill="#7ee787" stroke="black" stroke-width="0" d="M651.89,-360C651.89,-360 610.22,-360 610.22,-360 604.22,-360 598.22,-354 598.22,-348 598.22,-348 598.22,-336 598.22,-336 598.22,-330 604.22,-324 610.22,-324 610.22,-324 651.89,-324 651.89,-324 657.89,-324 663.89,-330 663.89,-336 663.89,-336 663.89,-348 663.89,-348 663.89,-354 657.89,-360 651.89,-360"/>
<text xml:space="preserve" text-anchor="middle" x="631.05" y="-336.98" font-family="Helvetica,Arial,sans-serif" font-size="12.00" fill="#0d1117">storage</text>
</g>
<!-- l_model&#45;&gt;l_store -->
<!-- l_svc -->
<g id="node14" class="node">
<title>l_svc</title>
<path fill="#d2a8ff" stroke="black" stroke-width="0" d="M891.43,-360C891.43,-360 850.51,-360 850.51,-360 844.51,-360 838.51,-354 838.51,-348 838.51,-348 838.51,-336 838.51,-336 838.51,-330 844.51,-324 850.51,-324 850.51,-324 891.43,-324 891.43,-324 897.43,-324 903.43,-330 903.43,-336 903.43,-336 903.43,-348 903.43,-348 903.43,-354 897.43,-360 891.43,-360"/>
<text xml:space="preserve" text-anchor="middle" x="870.97" y="-336.98" font-family="Helvetica,Arial,sans-serif" font-size="12.00" fill="#0d1117">service</text>
</g>
<!-- l_store&#45;&gt;l_svc -->
</g>
</svg>
